<svg xmlns="http://www.w3.org/2000/svg" width="135" height="28" viewBox="0 0 135 28" fill="none">
  <g transform="translate(-4.5 -0.29) scale(1.12)" stroke="#4A5DCD" stroke-width="1.96" stroke-linecap="round" stroke-linejoin="round">
    <path d="M18.66 19.66A8 8 0 1 1 18.66 8.34"/>
    <path d="M17.36 3.51L18.66 8.34L13.83 7.05"/>
  </g>
  <path fill="#4A5DCD" d="M34.28 20.37Q32.87 20.37 31.77 19.89Q30.66 19.40 29.90 18.55Q29.15 17.69 28.75 16.52Q28.35 15.36 28.35 13.98Q28.35 12.64 28.75 11.48Q29.15 10.33 29.91 9.46Q30.68 8.59 31.77 8.11Q32.87 7.62 34.28 7.62Q35.86 7.62 37.02 8.13Q38.18 8.64 38.91 9.59Q39.65 10.53 39.98 11.80L37.82 12.28Q37.50 11.02 36.61 10.31Q35.73 9.59 34.28 9.59Q33.13 9.59 32.30 10.16Q31.48 10.73 31.04 11.73Q30.61 12.72 30.61 13.98Q30.61 15.26 31.05 16.26Q31.49 17.26 32.34 17.83Q33.19 18.40 34.38 18.40Q35.27 18.40 35.97 18.05Q36.66 17.70 37.15 17.06Q37.63 16.41 37.84 15.54L40.01 15.90Q39.79 16.84 39.34 17.64Q38.89 18.45 38.18 19.06Q37.48 19.68 36.51 20.02Q35.54 20.37 34.28 20.37 M51.08 20.37Q49.23 20.37 47.87 19.54Q46.52 18.71 45.78 17.26Q45.04 15.82 45.04 13.98Q45.04 12.64 45.46 11.48Q45.88 10.33 46.67 9.46Q47.46 8.59 48.57 8.11Q49.68 7.62 51.08 7.62Q52.49 7.62 53.59 8.11Q54.70 8.59 55.49 9.46Q56.28 10.33 56.70 11.48Q57.11 12.64 57.11 13.98Q57.11 14.95 56.87 15.88Q56.62 16.80 56.15 17.62Q55.69 18.43 54.95 19.06Q54.22 19.68 53.25 20.02Q52.29 20.37 51.08 20.37M51.16 18.45Q52.32 18.45 53.14 17.87Q53.97 17.28 54.41 16.27Q54.85 15.26 54.85 13.98Q54.85 12.72 54.39 11.72Q53.93 10.72 53.08 10.13Q52.23 9.54 51.08 9.54Q49.92 9.54 49.07 10.14Q48.22 10.73 47.76 11.73Q47.30 12.72 47.30 13.98Q47.30 15.27 47.77 16.28Q48.24 17.30 49.11 17.87Q49.99 18.45 51.16 18.45 M73.28 20.13L71.21 20.13L65.02 11.26L65.02 16.73Q65.02 17.60 65.04 18.46Q65.07 19.32 65.14 20.13L62.86 20.13Q62.93 19.32 62.95 18.45Q62.98 17.58 62.98 16.73L63 11.29Q63 10.43 62.97 9.55Q62.94 8.68 62.88 7.89L64.93 7.89L71.12 16.77L71.12 11.29Q71.12 10.46 71.10 9.59Q71.07 8.73 71 7.89L73.28 7.89Q73.21 8.73 73.19 9.59Q73.16 10.46 73.16 11.29L73.16 16.73Q73.16 17.65 73.19 18.52Q73.21 19.39 73.28 20.13 M85.61 20.13L82.95 20.13Q82.89 19.78 82.79 19.46Q82.70 19.15 82.53 18.71L80.37 12.82Q80 11.77 79.71 11.01Q79.43 10.26 79.22 9.71Q79.01 9.17 78.81 8.74Q78.62 8.30 78.43 7.89L81.10 7.89Q81.17 8.27 81.31 8.80Q81.46 9.34 81.73 10.15Q82 10.95 82.44 12.23L84.42 17.55L86.35 12.38Q86.71 11.35 86.96 10.62Q87.20 9.90 87.36 9.40Q87.51 8.90 87.60 8.54Q87.70 8.18 87.73 7.89L90.13 7.89Q89.87 8.40 89.61 9.03Q89.35 9.65 89.01 10.58Q88.67 11.52 88.14 12.99L86.03 18.71Q85.86 19.20 85.77 19.51Q85.67 19.83 85.61 20.13 M104.17 20.13L95.28 20.13Q95.33 18.76 95.35 17.19Q95.38 15.63 95.38 14.03Q95.38 12.43 95.35 10.86Q95.33 9.29 95.28 7.89L103.93 7.89L103.93 9.83Q102.83 9.78 101.73 9.75Q100.63 9.71 99.59 9.71Q98.54 9.70 97.54 9.70Q97.52 10.38 97.50 10.95Q97.47 11.52 97.46 12.07Q97.45 12.62 97.45 13.23Q98.87 13.23 100.32 13.22Q101.77 13.20 103.15 13.15L103.15 14.88Q101.77 14.83 100.32 14.81Q98.87 14.80 97.45 14.80Q97.45 15.39 97.46 15.97Q97.47 16.55 97.50 17.12Q97.52 17.69 97.54 18.33Q98.58 18.33 99.66 18.32Q100.75 18.30 101.88 18.26Q103.01 18.23 104.17 18.20 M112.21 20.13L109.85 20.13Q109.90 18.89 109.92 17.30Q109.95 15.71 109.95 14.03Q109.95 12.40 109.92 10.81Q109.90 9.22 109.85 7.89L113.66 7.89Q115.56 7.89 116.81 8.41Q118.06 8.93 118.69 9.85Q119.32 10.77 119.32 12.01Q119.32 13.20 118.66 14.11Q118.01 15.02 116.71 15.54Q115.41 16.05 113.47 16.05L112.14 16.05Q112.14 16.90 112.15 17.75Q112.16 18.59 112.18 19.23Q112.19 19.86 112.21 20.13M119.47 20.13L116.66 20.13Q115.93 19.54 115.21 18.83Q114.49 18.11 113.83 17.36Q113.18 16.62 112.65 15.94L114.83 15.60Q115.30 16.19 116 16.90Q116.70 17.62 117.57 18.40Q118.43 19.18 119.47 20.02L119.47 20.13M112.14 14.42L113.59 14.42Q114.79 14.41 115.58 14.12Q116.36 13.83 116.72 13.29Q117.09 12.76 117.09 12.01Q117.09 11.31 116.71 10.79Q116.32 10.27 115.55 9.99Q114.78 9.70 113.59 9.70L112.23 9.70Q112.21 10.14 112.18 10.91Q112.16 11.69 112.15 12.60Q112.14 13.52 112.14 14.42 M130.26 20.13L127.82 20.13Q127.87 18.86 127.90 17.60Q127.94 16.34 127.94 15.09Q127.95 13.73 127.94 12.37Q127.94 11.01 127.94 9.66Q127.03 9.66 126.07 9.69Q125.11 9.71 124.08 9.80L124.08 7.89L133.99 7.89L133.99 9.80Q132.97 9.71 132.01 9.69Q131.05 9.66 130.15 9.66Q130.15 11.01 130.14 12.37Q130.13 13.73 130.15 15.09Q130.16 16.34 130.20 17.61Q130.23 18.88 130.26 20.13"/>
</svg>
